<?xml version="1.0" encoding="UTF-8" standalone="no"?>
<svg
   height="72"
   viewBox="0 0 72 72"
   width="72"
   version="1.1"
   id="svg979"
   sodipodi:docname="email.svg"
   inkscape:version="1.1 (c68e22c387, 2021-05-23)"
   xmlns:inkscape="http://www.inkscape.org/namespaces/inkscape"
   xmlns:sodipodi="http://sodipodi.sourceforge.net/DTD/sodipodi-0.dtd"
   xmlns="http://www.w3.org/2000/svg"
   xmlns:svg="http://www.w3.org/2000/svg">
  <defs
     id="defs983" />
  <sodipodi:namedview
     id="namedview981"
     pagecolor="#ffffff"
     bordercolor="#666666"
     borderopacity="1.0"
     inkscape:pageshadow="2"
     inkscape:pageopacity="0.0"
     inkscape:pagecheckerboard="0"
     showgrid="false"
     inkscape:zoom="2.4257691"
     inkscape:cx="6.3897261"
     inkscape:cy="9.2754088"
     inkscape:window-width="1366"
     inkscape:window-height="721"
     inkscape:window-x="0"
     inkscape:window-y="20"
     inkscape:window-maximized="1"
     inkscape:current-layer="svg979" />
  <path
     d="m 36,72 v 0 C 55.882251,72 72,55.882251 72,36 v 0 C 72,16.117749 55.882251,0 36,0 V 0 C 16.117749,0 0,16.117749 0,36 v 0 c 0,19.882251 16.117749,36 36,36 z"
     fill="#000000"
     id="path973"
     style="fill-rule:evenodd;fill:#72caca;fill-opacity:1" />
  <path
     d="m 18,26.162323 v 20.38529 c 0,1.109032 0.811742,2.007871 1.930064,2.007871 h 31.81471 c 1.117162,0 1.930065,-0.90929 1.930065,-2.007871 V 26.162323 C 53.674839,24.94529 52.947871,24 51.744774,24 H 19.930064 C 18.680516,24 18,24.968516 18,26.162323 m 2.933419,1.775612 c 0,-0.491225 0.297291,-0.772258 0.772258,-0.772258 0.293807,0 11.854452,7.32542 12.55471,7.755097 l 1.80929,1.12529 c 0.573678,-0.384387 1.149678,-0.713032 1.744258,-1.111354 1.213549,-0.775742 12.011226,-7.769033 12.308517,-7.769033 0.476129,0 0.772258,0.281033 0.772258,0.772258 0,0.520258 -1.002194,1.037033 -1.654839,1.435355 -4.100516,2.499097 -8.199871,5.223484 -12.259742,7.815484 -0.236903,0.160258 -0.695613,0.502839 -1.039355,0.450581 -0.383226,-0.05923 -12.147097,-7.616903 -14.287355,-8.875742 -0.321677,-0.18929 -0.72,-0.362323 -0.72,-0.825678"
     fill="#ffffff"
     id="path975"
     style="fill-rule:evenodd" />
</svg>
