<?xml version="1.0" encoding="UTF-8" standalone="no"?>
<svg
   fill="#000000"
   viewBox="0 0 50 50"
   width="50px"
   height="50px"
   version="1.1"
   id="svg2101"
   sodipodi:docname="instagram.svg"
   inkscape:version="1.1 (c68e22c387, 2021-05-23)"
   xmlns:inkscape="http://www.inkscape.org/namespaces/inkscape"
   xmlns:sodipodi="http://sodipodi.sourceforge.net/DTD/sodipodi-0.dtd"
   xmlns="http://www.w3.org/2000/svg"
   xmlns:svg="http://www.w3.org/2000/svg">
  <defs
     id="defs2105" />
  <sodipodi:namedview
     id="namedview2103"
     pagecolor="#ffffff"
     bordercolor="#666666"
     borderopacity="1.0"
     inkscape:pageshadow="2"
     inkscape:pageopacity="0.0"
     inkscape:pagecheckerboard="0"
     showgrid="false"
     inkscape:zoom="4.94"
     inkscape:cx="4.3522267"
     inkscape:cy="29.251012"
     inkscape:window-width="1366"
     inkscape:window-height="721"
     inkscape:window-x="0"
     inkscape:window-y="20"
     inkscape:window-maximized="1"
     inkscape:current-layer="svg2101" />
  <path
     d="M 16,3 C 8.8324839,3 3,8.8324839 3,16 v 18 c 0,7.167516 5.8324839,13 13,13 h 18 c 7.167516,0 13,-5.832484 13,-13 V 16 C 47,8.8324839 41.167516,3 34,3 Z m 0,2 h 18 c 6.086484,0 11,4.9135161 11,11 v 18 c 0,6.086484 -4.913516,11 -11,11 H 16 C 9.9135161,45 5,40.086484 5,34 V 16 C 5,9.9135161 9.9135161,5 16,5 Z m 21,6 a 2,2 0 0 0 -2,2 2,2 0 0 0 2,2 2,2 0 0 0 2,-2 2,2 0 0 0 -2,-2 z m -12,3 c -6.063288,0 -11,4.936712 -11,11 0,6.063288 4.936712,11 11,11 6.063288,0 11,-4.936712 11,-11 0,-6.063288 -4.936712,-11 -11,-11 z m 0,2 c 4.982407,0 9,4.017593 9,9 0,4.982407 -4.017593,9 -9,9 -4.982407,0 -9,-4.017593 -9,-9 0,-4.982407 4.017593,-9 9,-9 z"
     id="path2099"
     style="display:inline;fill:#72caca;fill-opacity:1"
     inkscape:export-filename="/home/bolshevik17/www/templatemo/assets/images/instagram.png"
     inkscape:export-xdpi="80.022697"
     inkscape:export-ydpi="80.022697" />
</svg>
